<?xml version="1.0" encoding="UTF-8" standalone="no"?>
<!DOCTYPE svg PUBLIC "-//W3C//DTD SVG 1.1//EN"
 "http://www.w3.org/Graphics/SVG/1.1/DTD/svg11.dtd">
<!-- Generated by graphviz version 2.43.0 (0)
 -->
<!-- Title: orchfs_async_request_flow Pages: 1 -->
<svg width="923pt" height="540pt"
 viewBox="0.00 0.00 922.51 540.00" xmlns="http://www.w3.org/2000/svg" xmlns:xlink="http://www.w3.org/1999/xlink">
<g id="graph0" class="graph" transform="scale(0.47 0.47) rotate(0) translate(14.4 1127.53)">
<title>orchfs_async_request_flow</title>
<polygon fill="white" stroke="transparent" points="-14.4,14.4 -14.4,-1127.53 1936.4,-1127.53 1936.4,14.4 -14.4,14.4"/>
<text text-anchor="middle" x="961" y="-1091.53" font-family="DejaVu Sans" font-size="22.00">Production OrchFS client/KFS request flow</text>
<g id="clust1" class="cluster">
<title>cluster_application</title>
<path fill="#edf6ff" stroke="#90b8dc" stroke-width="1.3" d="M20,-309.8C20,-309.8 459,-309.8 459,-309.8 465,-309.8 471,-315.8 471,-321.8 471,-321.8 471,-1043.84 471,-1043.84 471,-1049.84 465,-1055.84 459,-1055.84 459,-1055.84 20,-1055.84 20,-1055.84 14,-1055.84 8,-1049.84 8,-1043.84 8,-1043.84 8,-321.8 8,-321.8 8,-315.8 14,-309.8 20,-309.8"/>
<text text-anchor="middle" x="239.5" y="-1042.24" font-family="DejaVu Sans Bold" font-size="12.00" fill="#244a68">APPLICATION PROCESS</text>
</g>
<g id="clust3" class="cluster">
<title>cluster_ipc</title>
<path fill="#f4f6f8" stroke="#b8c2cc" stroke-width="1.3" d="M624,-300.31C624,-300.31 803,-300.31 803,-300.31 809,-300.31 815,-306.31 815,-312.31 815,-312.31 815,-1037.51 815,-1037.51 815,-1043.51 809,-1049.51 803,-1049.51 803,-1049.51 624,-1049.51 624,-1049.51 618,-1049.51 612,-1043.51 612,-1037.51 612,-1037.51 612,-312.31 612,-312.31 612,-306.31 618,-300.31 624,-300.31"/>
<text text-anchor="middle" x="713.5" y="-1035.91" font-family="DejaVu Sans Bold" font-size="12.00" fill="#425466">CLIENT–KFS IPC</text>
</g>
<g id="clust5" class="cluster">
<title>cluster_kfs</title>
<path fill="#eaf3fb" stroke="#7da8d4" stroke-width="1.3" d="M898,-25.29C898,-25.29 1488,-25.29 1488,-25.29 1494,-25.29 1500,-31.29 1500,-37.29 1500,-37.29 1500,-933.19 1500,-933.19 1500,-939.19 1494,-945.19 1488,-945.19 1488,-945.19 898,-945.19 898,-945.19 892,-945.19 886,-939.19 886,-933.19 886,-933.19 886,-37.29 886,-37.29 886,-31.29 892,-25.29 898,-25.29"/>
<text text-anchor="middle" x="1193" y="-931.59" font-family="DejaVu Sans Bold" font-size="12.00" fill="#244a68">KFS PROCESS — KFS Runtime</text>
</g>
<g id="clust7" class="cluster">
<title>cluster_storage</title>
<path fill="#f0f8ed" stroke="#8ebf83" stroke-width="1.3" d="M1703,-347.73C1703,-347.73 1902,-347.73 1902,-347.73 1908,-347.73 1914,-353.73 1914,-359.73 1914,-359.73 1914,-1015.38 1914,-1015.38 1914,-1021.38 1908,-1027.38 1902,-1027.38 1902,-1027.38 1703,-1027.38 1703,-1027.38 1697,-1027.38 1691,-1021.38 1691,-1015.38 1691,-1015.38 1691,-359.73 1691,-359.73 1691,-353.73 1697,-347.73 1703,-347.73"/>
<text text-anchor="middle" x="1802.5" y="-1013.78" font-family="DejaVu Sans Bold" font-size="12.00" fill="#356832">STORAGE DATA PATHS</text>
</g>
<!-- posix_path -->
<g id="node1" class="node">
<title>posix_path</title>
<path fill="white" stroke="#36556f" stroke-width="1.25" d="M176.5,-811.45C176.5,-811.45 37.5,-811.45 37.5,-811.45 31.5,-811.45 25.5,-805.45 25.5,-799.45 25.5,-799.45 25.5,-723.45 25.5,-723.45 25.5,-717.45 31.5,-711.45 37.5,-711.45 37.5,-711.45 176.5,-711.45 176.5,-711.45 182.5,-711.45 188.5,-717.45 188.5,-723.45 188.5,-723.45 188.5,-799.45 188.5,-799.45 188.5,-805.45 182.5,-811.45 176.5,-811.45"/>
<text text-anchor="middle" x="107" y="-794.65" font-family="DejaVu Sans" font-size="11.00" fill="#102a43">OrchFS&#45;routed POSIX call</text>
<text text-anchor="middle" x="107" y="-782.65" font-family="DejaVu Sans" font-size="11.00" fill="#102a43">↓</text>
<text text-anchor="middle" x="107" y="-770.65" font-family="DejaVu Sans" font-size="11.00" fill="#102a43">LD_PRELOAD</text>
<text text-anchor="middle" x="107" y="-758.65" font-family="DejaVu Sans" font-size="11.00" fill="#102a43">path / virtual&#45;fd routing</text>
<text text-anchor="middle" x="107" y="-746.65" font-family="DejaVu Sans" font-size="11.00" fill="#102a43">↓</text>
<text text-anchor="middle" x="107" y="-734.65" font-family="DejaVu Sans" font-size="11.00" fill="#102a43">POSIX adapter</text>
<text text-anchor="middle" x="107" y="-722.65" font-family="DejaVu Sans" font-size="11.00" fill="#102a43">blocking boundary</text>
</g>
<!-- client_runtime -->
<g id="node3" class="node">
<title>client_runtime</title>
<path fill="#dceeff" stroke="#36556f" stroke-width="1.25" d="M441,-667.45C441,-667.45 333,-667.45 333,-667.45 327,-667.45 321,-661.45 321,-655.45 321,-655.45 321,-627.45 321,-627.45 321,-621.45 327,-615.45 333,-615.45 333,-615.45 441,-615.45 441,-615.45 447,-615.45 453,-621.45 453,-627.45 453,-627.45 453,-655.45 453,-655.45 453,-661.45 447,-667.45 441,-667.45"/>
<text text-anchor="middle" x="387" y="-650.65" font-family="DejaVu Sans" font-size="11.00" fill="#102a43">Client Runtime</text>
<text text-anchor="middle" x="387" y="-638.65" font-family="DejaVu Sans" font-size="11.00" fill="#102a43">request submission</text>
<text text-anchor="middle" x="387" y="-626.65" font-family="DejaVu Sans" font-size="11.00" fill="#102a43">completion pollers</text>
</g>
<!-- posix_path&#45;&gt;client_runtime -->
<g id="edge1" class="edge">
<title>posix_path&#45;&gt;client_runtime</title>
<path fill="none" stroke="#0f8b8d" stroke-width="2.1" d="M188.78,-726.58C229.83,-708.86 279.15,-687.57 318.2,-670.71"/>
<polygon fill="#0f8b8d" stroke="#0f8b8d" stroke-width="2.1" points="319.44,-673.07 325.37,-667.62 317.34,-668.19 319.44,-673.07"/>
<text text-anchor="middle" x="255" y="-718.45" font-family="DejaVu Sans" font-size="10.00" fill="#0b6f70">1 &#160;general submit</text>
</g>
<!-- shm_sq -->
<g id="node5" class="node">
<title>shm_sq</title>
<path fill="#e8f5f5" stroke="#36556f" stroke-width="1.25" d="M784.5,-661.45C784.5,-661.45 641.5,-661.45 641.5,-661.45 635.5,-661.45 629.5,-655.45 629.5,-649.45 629.5,-649.45 629.5,-633.45 629.5,-633.45 629.5,-627.45 635.5,-621.45 641.5,-621.45 641.5,-621.45 784.5,-621.45 784.5,-621.45 790.5,-621.45 796.5,-627.45 796.5,-633.45 796.5,-633.45 796.5,-649.45 796.5,-649.45 796.5,-655.45 790.5,-661.45 784.5,-661.45"/>
<text text-anchor="middle" x="713" y="-644.65" font-family="DejaVu Sans" font-size="11.00" fill="#102a43">SHM SQ lanes</text>
<text text-anchor="middle" x="713" y="-632.65" font-family="DejaVu Sans" font-size="11.00" fill="#102a43">request descriptor + data</text>
</g>
<!-- posix_path&#45;&gt;shm_sq -->
<g id="edge10" class="edge">
<title>posix_path&#45;&gt;shm_sq</title>
<path fill="none" stroke="#0f8b8d" stroke-width="2.1" d="M111.48,-711.43C118.8,-649.02 141.51,-544.55 212,-495.45 354.79,-395.98 448.66,-411.04 603.5,-490.45 654.05,-516.37 686.37,-578.01 701.64,-614.01"/>
<polygon fill="#0f8b8d" stroke="#0f8b8d" stroke-width="2.1" points="699.28,-615.27 704.64,-621.28 704.2,-613.24 699.28,-615.27"/>
<text text-anchor="middle" x="387" y="-440.45" font-family="DejaVu Sans" font-size="10.00" fill="#0b6f70">1 &#160;positioned I/O direct SQ</text>
</g>
<!-- async_api -->
<g id="node2" class="node">
<title>async_api</title>
<path fill="white" stroke="#36556f" stroke-width="1.25" d="M169,-465.45C169,-465.45 45,-465.45 45,-465.45 39,-465.45 33,-459.45 33,-453.45 33,-453.45 33,-437.45 33,-437.45 33,-431.45 39,-425.45 45,-425.45 45,-425.45 169,-425.45 169,-425.45 175,-425.45 181,-431.45 181,-437.45 181,-437.45 181,-453.45 181,-453.45 181,-459.45 175,-465.45 169,-465.45"/>
<text text-anchor="middle" x="107" y="-448.65" font-family="DejaVu Sans" font-size="11.00" fill="#102a43">Native async API</text>
<text text-anchor="middle" x="107" y="-436.65" font-family="DejaVu Sans" font-size="11.00" fill="#102a43">Client / File / Directory</text>
</g>
<!-- async_api&#45;&gt;client_runtime -->
<g id="edge2" class="edge">
<title>async_api&#45;&gt;client_runtime</title>
<path fill="none" stroke="#0f8b8d" stroke-width="2.1" d="M146.63,-465.5C186.13,-486.71 248.52,-522.2 298,-559.45 318.06,-574.55 338.69,-593.55 354.93,-609.46"/>
<polygon fill="#0f8b8d" stroke="#0f8b8d" stroke-width="2.1" points="353.43,-611.72 360.7,-615.17 357.17,-607.94 353.43,-611.72"/>
<text text-anchor="middle" x="255" y="-562.45" font-family="DejaVu Sans" font-size="10.00" fill="#0b6f70">1 &#160;async submit</text>
</g>
<!-- client_runtime&#45;&gt;posix_path -->
<g id="edge20" class="edge">
<title>client_runtime&#45;&gt;posix_path</title>
<path fill="none" stroke="#e36b2c" stroke-width="2.1" stroke-dasharray="5,2" d="M368.7,-667.45C352.94,-688.87 327.65,-718.13 298,-733.45 267.15,-749.39 229.95,-756.99 196.68,-760.41"/>
<polygon fill="#e36b2c" stroke="#e36b2c" stroke-width="2.1" points="196.08,-757.79 188.76,-761.15 196.57,-763.09 196.08,-757.79"/>
<text text-anchor="middle" x="255" y="-760.45" font-family="DejaVu Sans" font-size="10.00" fill="#c6531d">return</text>
</g>
<!-- client_runtime&#45;&gt;async_api -->
<g id="edge21" class="edge">
<title>client_runtime&#45;&gt;async_api</title>
<path fill="none" stroke="#e36b2c" stroke-width="2.1" stroke-dasharray="5,2" d="M320.83,-624.77C286.32,-613.85 244.48,-597.16 212,-573.45 173.89,-545.63 141.75,-500.59 123.68,-472.02"/>
<polygon fill="#e36b2c" stroke="#e36b2c" stroke-width="2.1" points="125.89,-470.53 119.62,-465.49 121.37,-473.34 125.89,-470.53"/>
<text text-anchor="middle" x="255" y="-619.45" font-family="DejaVu Sans" font-size="10.00" fill="#c6531d">resume</text>
</g>
<!-- control -->
<g id="node4" class="node">
<title>control</title>
<path fill="#ffffff" stroke="#36556f" stroke-width="1.25" d="M766.5,-883.45C766.5,-883.45 659.5,-883.45 659.5,-883.45 653.5,-883.45 647.5,-877.45 647.5,-871.45 647.5,-871.45 647.5,-855.45 647.5,-855.45 647.5,-849.45 653.5,-843.45 659.5,-843.45 659.5,-843.45 766.5,-843.45 766.5,-843.45 772.5,-843.45 778.5,-849.45 778.5,-855.45 778.5,-855.45 778.5,-871.45 778.5,-871.45 778.5,-877.45 772.5,-883.45 766.5,-883.45"/>
<text text-anchor="middle" x="713" y="-866.65" font-family="DejaVu Sans" font-size="11.00" fill="#102a43">Unix control socket</text>
<text text-anchor="middle" x="713" y="-854.65" font-family="DejaVu Sans" font-size="11.00" fill="#102a43">session setup</text>
</g>
<!-- client_runtime&#45;&gt;control -->
<g id="edge7" class="edge">
<title>client_runtime&#45;&gt;control</title>
<path fill="none" stroke="#7b8794" stroke-width="1.4" stroke-dasharray="1,5" d="M426.12,-667.57C489.23,-710.81 614.54,-796.67 676.13,-838.87"/>
<polygon fill="#7b8794" stroke="#7b8794" stroke-width="1.4" points="674.83,-841.21 682.61,-843.31 677.84,-836.82 674.83,-841.21"/>
<text text-anchor="middle" x="541" y="-787.45" font-family="DejaVu Sans" font-size="10.00" fill="#616e7c">handshake</text>
</g>
<!-- client_runtime&#45;&gt;shm_sq -->
<g id="edge9" class="edge">
<title>client_runtime&#45;&gt;shm_sq</title>
<path fill="none" stroke="#0f8b8d" stroke-width="2.1" d="M453.18,-641.45C501.52,-641.45 568.04,-641.45 621.54,-641.45"/>
<polygon fill="#0f8b8d" stroke="#0f8b8d" stroke-width="2.1" points="621.74,-644.11 629.34,-641.45 621.74,-638.79 621.74,-644.11"/>
<text text-anchor="middle" x="541" y="-644.45" font-family="DejaVu Sans" font-size="10.00" fill="#0b6f70">2 &#160;ordinary SQ publish</text>
</g>
<!-- server -->
<g id="node7" class="node">
<title>server</title>
<path fill="white" stroke="#36556f" stroke-width="1.25" d="M1054,-667.45C1054,-667.45 916,-667.45 916,-667.45 910,-667.45 904,-661.45 904,-655.45 904,-655.45 904,-627.45 904,-627.45 904,-621.45 910,-615.45 916,-615.45 916,-615.45 1054,-615.45 1054,-615.45 1060,-615.45 1066,-621.45 1066,-627.45 1066,-627.45 1066,-655.45 1066,-655.45 1066,-661.45 1060,-667.45 1054,-667.45"/>
<text text-anchor="middle" x="985" y="-650.65" font-family="DejaVu Sans" font-size="11.00" fill="#102a43">Server + owner routing</text>
<text text-anchor="middle" x="985" y="-638.65" font-family="DejaVu Sans" font-size="11.00" fill="#102a43">namespace → worker 0</text>
<text text-anchor="middle" x="985" y="-626.65" font-family="DejaVu Sans" font-size="11.00" fill="#102a43">inode I/O → stable owner</text>
</g>
<!-- control&#45;&gt;server -->
<g id="edge8" class="edge">
<title>control&#45;&gt;server</title>
<path fill="none" stroke="#7b8794" stroke-width="1.4" stroke-dasharray="1,5" d="M738.44,-843.35C785.65,-804.53 889.72,-718.96 946.03,-672.66"/>
<polygon fill="#7b8794" stroke="#7b8794" stroke-width="1.4" points="947.81,-674.65 951.99,-667.76 944.43,-670.54 947.81,-674.65"/>
<text text-anchor="middle" x="850" y="-774.45" font-family="DejaVu Sans" font-size="10.00" fill="#616e7c">session</text>
</g>
<!-- shm_sq&#45;&gt;server -->
<g id="edge11" class="edge">
<title>shm_sq&#45;&gt;server</title>
<path fill="none" stroke="#0f8b8d" stroke-width="2.1" d="M796.84,-641.45C828.14,-641.45 863.86,-641.45 895.64,-641.45"/>
<polygon fill="#0f8b8d" stroke="#0f8b8d" stroke-width="2.1" points="896.03,-644.11 903.63,-641.45 896.03,-638.79 896.03,-644.11"/>
<text text-anchor="middle" x="850" y="-644.45" font-family="DejaVu Sans" font-size="10.00" fill="#0b6f70">3 &#160;lane poll</text>
</g>
<!-- shm_cq -->
<g id="node6" class="node">
<title>shm_cq</title>
<path fill="#fff1e6" stroke="#36556f" stroke-width="1.25" d="M769,-440.45C769,-440.45 657,-440.45 657,-440.45 651,-440.45 645,-434.45 645,-428.45 645,-428.45 645,-412.45 645,-412.45 645,-406.45 651,-400.45 657,-400.45 657,-400.45 769,-400.45 769,-400.45 775,-400.45 781,-406.45 781,-412.45 781,-412.45 781,-428.45 781,-428.45 781,-434.45 775,-440.45 769,-440.45"/>
<text text-anchor="middle" x="713" y="-423.65" font-family="DejaVu Sans" font-size="11.00" fill="#102a43">SHM CQ lanes</text>
<text text-anchor="middle" x="713" y="-411.65" font-family="DejaVu Sans" font-size="11.00" fill="#102a43">status + result data</text>
</g>
<!-- shm_cq&#45;&gt;posix_path -->
<g id="edge19" class="edge">
<title>shm_cq&#45;&gt;posix_path</title>
<path fill="none" stroke="#e36b2c" stroke-width="2.1" stroke-dasharray="5,2" d="M652.19,-400.38C547.25,-369.38 329.95,-324.62 212,-439.45 192.65,-458.29 147.44,-616.21 123.5,-703.68"/>
<polygon fill="#e36b2c" stroke="#e36b2c" stroke-width="2.1" points="120.9,-703.11 121.46,-711.14 126.03,-704.51 120.9,-703.11"/>
<text text-anchor="middle" x="387" y="-380.45" font-family="DejaVu Sans" font-size="10.00" fill="#c6531d">direct leased CQ</text>
</g>
<!-- shm_cq&#45;&gt;client_runtime -->
<g id="edge18" class="edge">
<title>shm_cq&#45;&gt;client_runtime</title>
<path fill="none" stroke="#e36b2c" stroke-width="2.1" stroke-dasharray="5,2" d="M682.61,-440.5C625.6,-479.38 499.72,-565.24 432.44,-611.13"/>
<polygon fill="#e36b2c" stroke="#e36b2c" stroke-width="2.1" points="430.9,-608.97 426.12,-615.45 433.9,-613.36 430.9,-608.97"/>
<text text-anchor="middle" x="541" y="-578.45" font-family="DejaVu Sans" font-size="10.00" fill="#c6531d">7 &#160;ordinary resume / copy</text>
</g>
<!-- server&#45;&gt;shm_cq -->
<g id="edge17" class="edge">
<title>server&#45;&gt;shm_cq</title>
<path fill="none" stroke="#e36b2c" stroke-width="2.1" stroke-dasharray="5,2" d="M951.99,-615.25C899.52,-572.3 795.89,-487.47 744.44,-445.37"/>
<polygon fill="#e36b2c" stroke="#e36b2c" stroke-width="2.1" points="746,-443.2 738.44,-440.45 742.63,-447.32 746,-443.2"/>
<text text-anchor="middle" x="850" y="-553.45" font-family="DejaVu Sans" font-size="10.00" fill="#c6531d">CQ publish</text>
</g>
<!-- core -->
<g id="node8" class="node">
<title>core</title>
<path fill="#dceeff" stroke="#36556f" stroke-width="1.25" d="M1470,-765.45C1470,-765.45 1282,-765.45 1282,-765.45 1276,-765.45 1270,-759.45 1270,-753.45 1270,-753.45 1270,-725.45 1270,-725.45 1270,-719.45 1276,-713.45 1282,-713.45 1282,-713.45 1470,-713.45 1470,-713.45 1476,-713.45 1482,-719.45 1482,-725.45 1482,-725.45 1482,-753.45 1482,-753.45 1482,-759.45 1476,-765.45 1470,-765.45"/>
<text text-anchor="middle" x="1376" y="-748.65" font-family="DejaVu Sans" font-size="11.00" fill="#102a43">KfsCoroutineCore</text>
<text text-anchor="middle" x="1376" y="-736.65" font-family="DejaVu Sans" font-size="11.00" fill="#102a43">coroutine orchestration over</text>
<text text-anchor="middle" x="1376" y="-724.65" font-family="DejaVu Sans" font-size="11.00" fill="#102a43">retained C layout core + co_await</text>
</g>
<!-- server&#45;&gt;core -->
<g id="edge3" class="edge">
<title>server&#45;&gt;core</title>
<path fill="none" stroke="#0f8b8d" stroke-width="2.1" d="M1066.13,-661.63C1123.3,-676.04 1200.92,-695.59 1264.04,-711.49"/>
<polygon fill="#0f8b8d" stroke="#0f8b8d" stroke-width="2.1" points="1263.65,-714.14 1271.67,-713.41 1264.95,-708.98 1263.65,-714.14"/>
<text text-anchor="middle" x="1168" y="-707.45" font-family="DejaVu Sans" font-size="10.00" fill="#0b6f70">4 &#160;dispatch</text>
</g>
<!-- core&#45;&gt;server -->
<g id="edge16" class="edge">
<title>core&#45;&gt;server</title>
<path fill="none" stroke="#e36b2c" stroke-width="2.1" stroke-dasharray="5,2" d="M1269.94,-748.04C1214.45,-748.94 1146.2,-744.16 1089,-722.45 1061.25,-711.91 1035.02,-691.07 1015.98,-673.16"/>
<polygon fill="#e36b2c" stroke="#e36b2c" stroke-width="2.1" points="1017.63,-671.06 1010.31,-667.72 1013.95,-674.9 1017.63,-671.06"/>
<text text-anchor="middle" x="1168" y="-750.45" font-family="DejaVu Sans" font-size="10.00" fill="#c6531d">6 &#160;operation complete</text>
</g>
<!-- journal -->
<g id="node9" class="node">
<title>journal</title>
<path fill="#f7f4ff" stroke="#36556f" stroke-width="1.25" d="M1454,-411.45C1454,-411.45 1298,-411.45 1298,-411.45 1292,-411.45 1286,-405.45 1286,-399.45 1286,-399.45 1286,-371.45 1286,-371.45 1286,-365.45 1292,-359.45 1298,-359.45 1298,-359.45 1454,-359.45 1454,-359.45 1460,-359.45 1466,-365.45 1466,-371.45 1466,-371.45 1466,-399.45 1466,-399.45 1466,-405.45 1460,-411.45 1454,-411.45"/>
<text text-anchor="middle" x="1376" y="-394.65" font-family="DejaVu Sans" font-size="11.00" fill="#102a43">Foreground journal</text>
<text text-anchor="middle" x="1376" y="-382.65" font-family="DejaVu Sans" font-size="11.00" fill="#102a43">commit after data durability</text>
<text text-anchor="middle" x="1376" y="-370.65" font-family="DejaVu Sans" font-size="11.00" fill="#102a43">if metadata changes</text>
</g>
<!-- core&#45;&gt;journal -->
<g id="edge4" class="edge">
<title>core&#45;&gt;journal</title>
<path fill="none" stroke="#7c5cc4" stroke-width="1.8" d="M1394.53,-713.2C1458.41,-614.87 1459.79,-516.53 1398.67,-418.2"/>
<polygon fill="#7c5cc4" stroke="#7c5cc4" stroke-width="1.8" points="1400.87,-416.71 1394.55,-411.72 1396.38,-419.56 1400.87,-416.71"/>
</g>
<!-- pmem -->
<g id="node11" class="node">
<title>pmem</title>
<path fill="#ffffff" stroke="#36556f" stroke-width="1.25" d="M1884.5,-847.45C1884.5,-847.45 1721.5,-847.45 1721.5,-847.45 1715.5,-847.45 1709.5,-841.45 1709.5,-835.45 1709.5,-835.45 1709.5,-807.45 1709.5,-807.45 1709.5,-801.45 1715.5,-795.45 1721.5,-795.45 1721.5,-795.45 1884.5,-795.45 1884.5,-795.45 1890.5,-795.45 1896.5,-801.45 1896.5,-807.45 1896.5,-807.45 1896.5,-835.45 1896.5,-835.45 1896.5,-841.45 1890.5,-847.45 1884.5,-847.45"/>
<text text-anchor="middle" x="1803" y="-830.65" font-family="DejaVu Sans" font-size="11.00" fill="#102a43">PMEM</text>
<text text-anchor="middle" x="1803" y="-818.65" font-family="DejaVu Sans" font-size="11.00" fill="#102a43">virtual&#45;block payload</text>
<text text-anchor="middle" x="1803" y="-806.65" font-family="DejaVu Sans" font-size="11.00" fill="#102a43">STRATA overlays + metadata</text>
</g>
<!-- core&#45;&gt;pmem -->
<g id="edge12" class="edge">
<title>core&#45;&gt;pmem</title>
<path fill="none" stroke="#0f8b8d" stroke-width="2.1" d="M1482.06,-759.72C1549.16,-772.66 1635.65,-789.35 1701.79,-802.11"/>
<polygon fill="#0f8b8d" stroke="#0f8b8d" stroke-width="2.1" points="1701.38,-804.74 1709.35,-803.57 1702.39,-799.52 1701.38,-804.74"/>
<text text-anchor="middle" x="1595" y="-799.45" font-family="DejaVu Sans" font-size="10.00" fill="#0b6f70">5a &#160;PMEM phase (if selected; inline)</text>
</g>
<!-- nvme_path -->
<g id="node12" class="node">
<title>nvme_path</title>
<path fill="#ffffff" stroke="#36556f" stroke-width="1.25" d="M1881.5,-562.45C1881.5,-562.45 1724.5,-562.45 1724.5,-562.45 1718.5,-562.45 1712.5,-556.45 1712.5,-550.45 1712.5,-550.45 1712.5,-498.45 1712.5,-498.45 1712.5,-492.45 1718.5,-486.45 1724.5,-486.45 1724.5,-486.45 1881.5,-486.45 1881.5,-486.45 1887.5,-486.45 1893.5,-492.45 1893.5,-498.45 1893.5,-498.45 1893.5,-550.45 1893.5,-550.45 1893.5,-556.45 1887.5,-562.45 1881.5,-562.45"/>
<text text-anchor="middle" x="1803" y="-545.65" font-family="DejaVu Sans" font-size="11.00" fill="#102a43">AsyncBlockDevice</text>
<text text-anchor="middle" x="1803" y="-533.65" font-family="DejaVu Sans" font-size="11.00" fill="#102a43">↓</text>
<text text-anchor="middle" x="1803" y="-521.65" font-family="DejaVu Sans" font-size="11.00" fill="#102a43">Runtime&#45;owned SPDK qpairs</text>
<text text-anchor="middle" x="1803" y="-509.65" font-family="DejaVu Sans" font-size="11.00" fill="#102a43">↓</text>
<text text-anchor="middle" x="1803" y="-497.65" font-family="DejaVu Sans" font-size="11.00" fill="#102a43">NVMe SSD</text>
</g>
<!-- core&#45;&gt;nvme_path -->
<g id="edge13" class="edge">
<title>core&#45;&gt;nvme_path</title>
<path fill="none" stroke="#0f8b8d" stroke-width="2.1" d="M1428.69,-713.3C1501.17,-676.63 1633.75,-609.56 1719.83,-566.01"/>
<polygon fill="#0f8b8d" stroke="#0f8b8d" stroke-width="2.1" points="1721.14,-568.33 1726.72,-562.53 1718.74,-563.59 1721.14,-568.33"/>
<text text-anchor="middle" x="1595" y="-672.45" font-family="DejaVu Sans" font-size="10.00" fill="#0b6f70">5b &#160;SSD phase (if selected; async)</text>
</g>
<!-- journal&#45;&gt;core -->
<g id="edge5" class="edge">
<title>journal&#45;&gt;core</title>
<path fill="none" stroke="#e36b2c" stroke-width="1.8" stroke-dasharray="5,2" d="M1357.45,-411.72C1293.58,-510.06 1292.21,-608.39 1353.35,-706.73"/>
<polygon fill="#e36b2c" stroke="#e36b2c" stroke-width="1.8" points="1351.15,-708.22 1357.47,-713.2 1355.64,-705.36 1351.15,-708.22"/>
</g>
<!-- migration -->
<g id="node10" class="node">
<title>migration</title>
<path fill="#f7f4ff" stroke="#36556f" stroke-width="1.25" d="M1459,-165.45C1459,-165.45 1293,-165.45 1293,-165.45 1287,-165.45 1281,-159.45 1281,-153.45 1281,-153.45 1281,-137.45 1281,-137.45 1281,-131.45 1287,-125.45 1293,-125.45 1293,-125.45 1459,-125.45 1459,-125.45 1465,-125.45 1471,-131.45 1471,-137.45 1471,-137.45 1471,-153.45 1471,-153.45 1471,-159.45 1465,-165.45 1459,-165.45"/>
<text text-anchor="middle" x="1376" y="-148.65" font-family="DejaVu Sans" font-size="11.00" fill="#102a43">Migration</text>
<text text-anchor="middle" x="1376" y="-136.65" font-family="DejaVu Sans" font-size="11.00" fill="#102a43">independent background work</text>
</g>
<!-- migration&#45;&gt;core -->
<g id="edge6" class="edge">
<title>migration&#45;&gt;core</title>
<path fill="none" stroke="#7b8794" stroke-width="1.4" stroke-dasharray="1,5" d="M1330.44,-165.45C1246.04,-205.77 1077.64,-303.22 1120,-422.95 1163.53,-545.98 1277.46,-656.19 1337.58,-708.07"/>
<polygon fill="#7b8794" stroke="#7b8794" stroke-width="1.4" points="1336.07,-710.29 1343.58,-713.21 1339.53,-706.24 1336.07,-710.29"/>
<text text-anchor="middle" x="1168" y="-414.95" font-family="DejaVu Sans" font-size="10.00" fill="#616e7c">same core path; no client SQ/CQ</text>
</g>
<!-- pmem&#45;&gt;core -->
<g id="edge14" class="edge">
<title>pmem&#45;&gt;core</title>
<path fill="none" stroke="#e36b2c" stroke-width="2.1" stroke-dasharray="5,2" d="M1787.8,-795.12C1764.63,-751.18 1718.56,-659.6 1691.5,-577.45 1685.53,-559.32 1697.35,-547.45 1682.5,-535.45 1622.01,-486.55 1575.72,-498.1 1507.5,-535.45 1440.99,-571.86 1403.42,-658.21 1387.03,-706.07"/>
<polygon fill="#e36b2c" stroke="#e36b2c" stroke-width="2.1" points="1384.46,-705.36 1384.58,-713.41 1389.51,-707.04 1384.46,-705.36"/>
</g>
<!-- nvme_path&#45;&gt;core -->
<g id="edge15" class="edge">
<title>nvme_path&#45;&gt;core</title>
<path fill="none" stroke="#e36b2c" stroke-width="2.1" stroke-dasharray="5,2" d="M1712.4,-488.91C1650.61,-470.49 1568.87,-458.68 1507.5,-495.45 1430.56,-541.55 1396.43,-650.2 1383.59,-705.64"/>
<polygon fill="#e36b2c" stroke="#e36b2c" stroke-width="2.1" points="1380.99,-705.1 1381.92,-713.09 1386.18,-706.26 1380.99,-705.1"/>
</g>
</g>
</svg>
